# xmcd CD database file
#
# Track frame offsets:
#	150
#	13024
#	25510
#	38113
#	52621
#	65738
#	83415
#	105697
#	124396
#	142929
#	159526
#	178952
#	197282
#	215682
#	234898
#	254583
#	268991
#	284241
#	303339
#	323588
#	345269
#
# Disc length: 4769 seconds
#
# Revision: 1
# Processed by: cddbd v1.5.2PL0 Copyright (c) Steve Scherf et al.
# Submitted via: CDex 1.51
#
DISCID=26129f15
DTITLE=Various Artist - ZM-IRISH-SH-CD-1
DYEAR=1900
DGENRE=Blues
TTITLE0=Bachelors - Charmaine
TTITLE1=Bachelors - Diane
TTITLE2=Bachelors - I Wouldn't Trade You For The World
TTITLE3=Bachelors - No Arms Can Ever Hold You
TTITLE4=Bachelors - Ramona
TTITLE5=Boomtown Rats The - I Don't Like Mondays
TTITLE6=Boomtown Rats - Rat Trap
TTITLE7=Boyzone - Words
TTITLE8=Charlie Landsborough - What Colour Is The Wind
TTITLE9=Corrs The - Breathless
TTITLE10=Corrs The - Dreams
TTITLE11=Corrs The - Runaway
TTITLE12=Corrs The - So Young
TTITLE13=Corrs The - What Can I Do (tin tin out remix)
TTITLE14=Cranberries The - Zombie
TTITLE15=Dana - All Kinds Of Everything
TTITLE16=Dana - Fairytale
TTITLE17=Daniel O'Donnell - Danny Boy
TTITLE18=Daniel O'Donnell - Isle Of Innisfree
TTITLE19=De Danann With Mary Black - Song For Ireland
TTITLE20=Dubliners - Finnegan's Wake
EXTD=
EXTT0=
EXTT1=
EXTT2=
EXTT3=
EXTT4=
EXTT5=
EXTT6=
EXTT7=
EXTT8=
EXTT9=
EXTT10=
EXTT11=
EXTT12=
EXTT13=
EXTT14=
EXTT15=
EXTT16=
EXTT17=
EXTT18=
EXTT19=
EXTT20=
PLAYORDER=
